name Walk8.mot
datacolumns 19
datarows 30
range 2.28100000 2.31000000
endheader

                time	   L_ground_force_vx	   L_ground_force_vy	   L_ground_force_vz	   L_ground_force_px	   L_ground_force_py	   L_ground_force_pz	   R_ground_force_vx	   R_ground_force_vy	   R_ground_force_vz	   R_ground_force_px	   R_ground_force_py	   R_ground_force_pz	   L_ground_torque_x	   L_ground_torque_y	   L_ground_torque_z	   R_ground_torque_x	   R_ground_torque_y	   R_ground_torque_z	
          2.28100000	         -0.00000000	         -0.00000001	          0.00000000	          0.00000000	          0.00000000	          0.00000000	         52.28986922	        169.72969675	          8.96864149	          0.43554264	          0.00000000	          0.08274088	          0.00000000	         -0.00000000	          0.00000000	          0.00000000	         -0.02020682	          0.00000000	
          2.28200000	         -0.00000000	         -0.00000001	          0.00000000	          0.00000000	          0.00000000	          0.00000000	         50.60728894	        163.27330399	          8.77170572	          0.43306809	          0.00000000	          0.08222241	          0.00000000	         -0.00000000	          0.00000000	          0.00000000	         -0.01646957	          0.00000000	
          2.28300000	         -0.00000000	         -0.00000001	          0.00000000	          0.00000000	          0.00000000	          0.00000000	         48.93471094	        156.91807306	          8.56530671	          0.43036283	          0.00000000	          0.08166102	          0.00000000	         -0.00000000	          0.00000000	          0.00000000	         -0.01298373	          0.00000000	
          2.28400000	         -0.00000000	         -0.00000001	          0.00000000	          0.00000000	          0.00000000	          0.00000000	         47.27373805	        150.66720225	          8.35021436	          0.42741846	          0.00000000	          0.08105519	          0.00000000	         -0.00000000	          0.00000000	          0.00000000	         -0.00974159	          0.00000000	
          2.28500000	         -0.00000000	         -0.00000001	          0.00000000	          0.00000000	          0.00000000	          0.00000000	         45.62592454	        144.52372915	          8.12722118	          0.42422684	          0.00000000	          0.08040344	          0.00000000	         -0.00000000	          0.00000000	          0.00000000	         -0.00673434	          0.00000000	
          2.28600000	         -0.00000000	         -0.00000001	          0.00000000	          0.00000000	          0.00000000	          0.00000000	         43.99277539	        138.49053114	          7.89713837	          0.42078013	          0.00000000	          0.07970432	          0.00000000	         -0.00000000	          0.00000000	          0.00000000	         -0.00395265	          0.00000000	
          2.28700000	         -0.00000000	         -0.00000001	         -0.00000000	          0.00000000	          0.00000000	          0.00000000	         42.37574584	        132.57032643	          7.66079151	          0.41707086	          0.00000000	          0.07895647	          0.00000000	         -0.00000000	          0.00000000	          0.00000000	         -0.00138699	          0.00000000	
          2.28800000	         -0.00000000	         -0.00000001	         -0.00000000	          0.00000000	          0.00000000	          0.00000000	         40.77624095	        126.76567501	          7.41901570	          0.41309200	          0.00000000	          0.07815858	          0.00000000	         -0.00000000	          0.00000000	          0.00000000	          0.00097229	          0.00000000	
          2.28900000	         -0.00000000	         -0.00000001	         -0.00000000	          0.00000000	          0.00000000	          0.00000000	         39.19561511	        121.07897921	          7.17265003	          0.40883696	          0.00000000	          0.07730944	          0.00000000	         -0.00000000	          0.00000000	          0.00000000	          0.00313511	          0.00000000	
          2.29000000	         -0.00000000	         -0.00000000	         -0.00000000	          0.00000000	          0.00000000	          0.00000000	         37.63517139	        115.51248413	          6.92253153	          0.40429976	          0.00000000	          0.07640792	          0.00000000	         -0.00000000	          0.00000000	          0.00000000	          0.00511194	          0.00000000	
          2.29100000	         -0.00000000	         -0.00000000	         -0.00000000	          0.00000000	          0.00000000	          0.00000000	         36.09616071	        110.06827839	          6.66948938	          0.39947499	          0.00000000	          0.07545300	          0.00000000	         -0.00000000	          0.00000000	          0.00000000	          0.00691384	          0.00000000	
          2.29200000	         -0.00000000	         -0.00000000	         -0.00000000	          0.00000000	          0.00000000	          0.00000000	         34.57978088	        104.74829501	          6.41433971	          0.39435799	          0.00000000	          0.07444380	          0.00000000	         -0.00000000	          0.00000000	          0.00000000	          0.00855237	          0.00000000	
          2.29300000	         -0.00000000	         -0.00000000	         -0.00000000	          0.00000000	          0.00000000	          0.00000000	         33.08717559	         99.55431224	          6.15788144	          0.38894488	          0.00000000	          0.07337958	          0.00000000	         -0.00000000	          0.00000000	          0.00000000	          0.01003899	          0.00000000	
          2.29400000	         -0.00000000	         -0.00000000	         -0.00000000	          0.00000000	          0.00000000	          0.00000000	         31.61943373	         94.48795373	          5.90089298	          0.38323268	          0.00000000	          0.07225980	          0.00000000	         -0.00000000	          0.00000000	          0.00000000	          0.01138450	          0.00000000	
          2.29500000	         -0.00000000	         -0.00000000	         -0.00000000	          0.00000000	          0.00000000	          0.00000000	         30.17758903	         89.55068739	          5.64412930	          0.37721939	          0.00000000	          0.07108413	          0.00000000	         -0.00000000	          0.00000000	          0.00000000	          0.01259838	          0.00000000	
          2.29600000	         -0.00000000	         -0.00000000	         -0.00000000	          0.00000000	          0.00000000	          0.00000000	         28.76262031	         84.74382317	          5.38831927	          0.37090406	          0.00000000	          0.06985244	          0.00000000	         -0.00000000	          0.00000000	          0.00000000	          0.01368851	          0.00000000	
          2.29700000	          0.00000000	         -0.00000000	         -0.00000000	          0.00000000	          0.00000000	          0.00000000	         27.37545243	         80.06850972	          5.13416274	          0.36428694	          0.00000000	          0.06856488	          0.00000000	         -0.00000000	          0.00000000	          0.00000000	          0.01466109	          0.00000000	
          2.29800000	          0.00000000	         -0.00000000	         -0.00000000	          0.00000000	          0.00000000	          0.00000000	         26.01695785	         75.52573063	          4.88232766	          0.35736955	          0.00000000	          0.06722186	          0.00000000	         -0.00000000	          0.00000000	          0.00000000	          0.01552094	          0.00000000	
          2.29900000	          0.00000000	         -0.00000000	         -0.00000000	          0.00000000	          0.00000000	          0.00000000	         24.68795872	         71.11630145	          4.63344731	          0.35015480	          0.00000000	          0.06582405	          0.00000000	         -0.00000000	          0.00000000	          0.00000000	          0.01627208	          0.00000000	
          2.30000000	          0.00000000	         -0.00000000	         -0.00000000	          0.00000000	          0.00000000	          0.00000000	         23.38922892	         66.84086853	          4.38811794	          0.34264712	          0.00000000	          0.06437241	          0.00000000	         -0.00000000	          0.00000000	          0.00000000	          0.01691818	          0.00000000	
          2.30100000	          0.00000000	         -0.00000000	         -0.00000000	          0.00000000	          0.00000000	          0.00000000	         22.12149602	         62.69991074	          4.14689701	          0.33485256	          0.00000000	          0.06286822	          0.00000000	         -0.00000000	          0.00000000	          0.00000000	          0.01746304	          0.00000000	
          2.30200000	          0.00000000	          0.00000000	         -0.00000000	          0.00000000	          0.00000000	          0.00000000	         20.88544308	         58.69374342	          3.91030206	          0.32677896	          0.00000000	          0.06131308	          0.00000000	         -0.00000000	          0.00000000	          0.00000000	          0.01791073	          0.00000000	
          2.30300000	          0.00000000	          0.00000000	         -0.00000000	          0.00000000	          0.00000000	          0.00000000	         19.68171031	         54.82252385	          3.67880994	          0.31843604	          0.00000000	          0.05970892	          0.00000000	         -0.00000000	          0.00000000	          0.00000000	          0.01826564	          0.00000000	
          2.30400000	          0.00000000	          0.00000000	         -0.00000000	          0.00000000	          0.00000000	          0.00000000	         18.51089669	         51.08625737	          3.45285642	          0.30983557	          0.00000000	          0.05805810	          0.00000000	         -0.00000000	          0.00000000	          0.00000000	          0.01853229	          0.00000000	
          2.30500000	          0.00000000	          0.00000000	         -0.00000000	          0.00000000	          0.00000000	          0.00000000	         17.37356164	         47.48480374	          3.23283552	          0.30099147	          0.00000000	          0.05636334	          0.00000000	         -0.00000000	          0.00000000	          0.00000000	          0.01871532	          0.00000000	
          2.30600000	          0.00000000	          0.00000000	         -0.00000000	          0.00000000	          0.00000000	          0.00000000	         16.27022643	         44.01788383	          3.01909857	          0.29191998	          0.00000000	          0.05462785	          0.00000000	         -0.00000000	          0.00000000	          0.00000000	          0.01881939	          0.00000000	
          2.30700000	          0.00000000	          0.00000000	         -0.00000000	          0.00000000	          0.00000000	          0.00000000	         15.20137525	         40.68508666	          2.81195262	          0.28263977	          0.00000000	          0.05285527	          0.00000000	         -0.00000000	          0.00000000	          0.00000000	          0.01884929	          0.00000000	
          2.30800000	          0.00000000	          0.00000000	         -0.00000000	          0.00000000	          0.00000000	          0.00000000	         14.16745553	         37.48587643	          2.61165866	          0.27317218	          0.00000000	          0.05104978	          0.00000000	         -0.00000000	          0.00000000	          0.00000000	          0.01880990	          0.00000000	
          2.30900000	          0.00000000	          0.00000000	         -0.00000000	          0.00000000	          0.00000000	          0.00000000	         13.16887692	         34.41959839	          2.41842994	          0.26354130	          0.00000000	          0.04921605	          0.00000000	         -0.00000000	          0.00000000	          0.00000000	          0.01870612	          0.00000000	
          2.31000000	          0.00000000	          0.00000000	         -0.00000000	          0.00000000	          0.00000000	          0.00000000	         12.20600839	         31.48548107	          2.23243100	          0.25377421	          0.00000000	          0.04735930	          0.00000000	         -0.00000000	          0.00000000	          0.00000000	          0.01854282	          0.00000000	
